PathFileType	4	(X/Y/Z)	C:\Users\WrightLab\Desktop\Jo\P5V22.trc
DataRate	CameraRate	NumFrames	NumMarkers	Units	OrigDataRate	OrigDataStartFrame	OrigNumFrames
100.00	100.00	      12	19	mm	100.00	690	      1103
Frame#	Time	Headset_Front			Headset_Back			Headset_Left			Headset_Right			Left_Shoulder			Right_Shoulder			Sternum			C7			Left Elbow			Right Elbow			Left Wrist			Right Wrist			Left ASIS			Right ASIS			S2			Left Knee			Right Knee			Left Ankle			Right Ankle			
		X1	Y1	Z1	X2	Y2	Z2	X3	Y3	Z3	X4	Y4	Z4	X5	Y5	Z5	X6	Y6	Z6	X7	Y7	Z7	X8	Y8	Z8	X9	Y9	Z9	X10	Y10	Z10	X11	Y11	Z11	X12	Y12	Z12	X13	Y13	Z13	X14	Y14	Z14	X15	Y15	Z15	X16	Y16	Z16	X17	Y17	Z17	X18	Y18	Z18	X19	Y19	Z19	

690	6.890	-227.68578	1569.04187	-243.64566	-455.83286	1523.43604	-226.80290							-120.43828	1494.98279	-437.24957	-503.79272	1442.90039	-361.56705	-309.98831	1288.51501	-350.62921	-353.21704	1520.19836	-521.05310	-123.32032	1297.60974	-341.64264	-637.38007	1233.69250	-249.85669	-16.21033	1248.12891	-505.13098	-603.99292	1162.87659	-3.80577	-139.97217	921.57043	-370.72089	-444.22806	922.13654	-319.67020	-256.22922	981.02832	-608.88800	-107.46920	496.77295	-347.78720	-456.74738	529.68805	-260.34109	-180.09485	85.25826	-422.68515	-461.59955	138.61566	-460.92307	
691	6.900	-227.76436	1569.24426	-239.39394	-455.79037	1522.98901	-221.18336							-122.67057	1494.62231	-433.92627	-504.24561	1443.32495	-356.42123	-311.09668	1289.38220	-346.94440	-354.39166	1521.23938	-516.20630	-124.01520	1297.83777	-337.71481	-635.50061	1232.70410	-243.48303	-17.54869	1248.95898	-502.75613	-597.85333	1162.35303	0.64224	-141.82375	921.77411	-367.58200	-444.98965	922.09186	-316.97144	-258.20337	981.83484	-605.31940	-108.66109	497.06891	-344.98795	-456.59122	530.97357	-257.15326	-180.47531	85.09280	-422.34814	-464.94397	131.61499	-442.41193	
692	6.910	-228.00870	1570.03711	-235.11211	-455.34882	1523.11438	-215.21227							-122.87353	1495.26465	-430.53143	-505.93155	1443.99475	-351.39944	-312.17361	1289.08105	-343.38498	-355.79840	1521.95959	-510.82315	-125.28840	1298.58069	-333.60806	-633.69104	1231.05469	-238.39890	-18.89720	1249.29517	-498.74927	-591.12170	1161.39563	4.89551	-143.25783	922.39893	-365.41699	-445.77213	922.50519	-313.39713	-259.97531	982.78748	-601.09717	-110.41747	497.86322	-342.71588	-456.85901	531.25494	-254.10889	-180.69124	85.30061	-422.23886	-468.58652	126.19441	-422.29675	
693	6.920	-228.25154	1570.99744	-232.33240	-455.03055	1523.34265	-210.20763							-124.02385	1496.10437	-426.22955	-506.52545	1444.55774	-346.73691	-311.84915	1290.42493	-337.96313	-356.91571	1522.44983	-506.01584	-127.24281	1297.81445	-330.64465	-631.64685	1230.38684	-233.43153	-20.34110	1250.02222	-496.48669	-584.29523	1160.68542	9.03708	-144.53911	922.43011	-362.11639	-446.92685	923.33698	-309.41043	-262.22006	983.88635	-598.51099	-111.07240	498.17825	-340.79910	-457.06476	530.89282	-252.89079	-180.72968	85.37753	-422.17709	-471.85397	120.04730	-402.67551	
694	6.930	-228.22556	1571.34229	-227.07501	-454.52362	1522.77539	-204.23109							-125.81288	1496.19226	-422.91498	-505.12787	1443.95447	-340.18933	-312.71140	1289.98474	-333.42648	-358.46637	1523.33936	-500.92706	-127.60389	1297.79456	-327.21115	-629.94214	1228.92627	-227.38260	-20.88902	1250.46838	-492.64719	-577.02313	1160.43591	12.68046	-147.12613	922.48309	-359.85767	-447.31604	923.01245	-305.99597	-263.89743	984.43488	-595.25500	-113.01881	497.88223	-339.08777	-457.53223	530.05090	-251.61099	-180.64020	85.65779	-421.86841	-475.35547	114.57846	-384.69363	
695	6.940	-228.19470	1571.58130	-222.81123	-454.57935	1522.90247	-198.99866							-126.76777	1496.22534	-418.63351	-507.63092	1444.39258	-334.95764	-312.77319	1290.50525	-329.41837	-360.36209	1524.12048	-497.01935	-128.19958	1298.30103	-324.74966	-628.28955	1227.71484	-222.41530	-22.67469	1250.61926	-490.64822	-569.94293	1159.19373	16.17212	-148.33902	922.99640	-357.55054	-448.49350	922.78162	-302.43481	-266.33801	985.27203	-591.28278	-113.20789	498.09354	-336.14169	-457.36710	527.30579	-251.20380	-180.83736	85.97746	-421.40912	-478.34540	110.95135	-366.67661	
696	6.950	-228.24504	1572.42468	-220.18257	-454.32196	1522.87976	-194.10945							-128.34679	1496.06018	-416.27972	-507.27335	1444.28650	-329.26724	-313.98279	1290.51233	-324.38995	-362.48883	1524.54932	-492.25873	-130.24542	1298.11353	-322.09460	-626.51288	1226.31018	-216.79475	-24.81744	1250.79980	-487.40646	-561.56525	1158.45886	20.36028	-149.76212	923.15686	-354.46756	-449.67395	922.95654	-299.20285	-268.97995	986.18292	-588.36707	-113.88050	498.42337	-334.76898	-458.45004	525.72327	-251.45468	-181.39868	85.99249	-421.23383	-481.60565	107.40108	-349.69702	
697	6.960	-228.20792	1572.92285	-217.56401	-453.76379	1522.48633	-188.69868							-129.84572	1496.72498	-412.06769	-507.50351	1444.98218	-323.92334	-314.35739	1290.43652	-320.09573	-364.47574	1524.91394	-487.42654	-130.70773	1298.33398	-319.83075	-624.90088	1225.29211	-211.76175	-27.73872	1251.21533	-486.85660	-553.43329	1157.96729	23.43019	-151.24763	923.07959	-351.79507	-450.29269	922.78680	-295.34268	-271.85873	986.82471	-584.83160	-114.14462	498.46707	-334.06857	-457.36084	522.13849	-251.54544	-181.44196	86.21366	-421.32925	-484.95709	105.53596	-334.90002	
698	6.970	-227.87187	1572.68396	-213.17606	-452.84802	1521.83264	-182.64923							-131.40970	1496.65186	-409.79767	-509.73959	1444.19568	-318.39343	-315.48355	1290.30457	-316.12927	-366.54184	1524.96301	-483.68420	-131.82176	1298.94800	-317.54388	-622.88837	1223.49744	-204.72011	-30.04044	1251.54199	-485.00174	-545.15796	1157.29321	26.71857	-153.19962	923.12402	-349.24075	-451.99109	923.43610	-291.12851	-274.43243	987.29810	-581.87231	-114.47369	499.01370	-332.83710	-459.69022	520.65411	-252.25957	-181.57759	86.32594	-420.89941	-487.86505	103.96465	-320.74515	
699	6.980	-227.65028	1572.93811	-210.43214	-452.22324	1521.79773	-178.20305							-133.02643	1495.99768	-408.40573	-509.42538	1444.11926	-312.43076	-316.79636	1289.98877	-313.91391	-368.85809	1525.13794	-479.13406	-133.64000	1298.18359	-315.64224	-621.09839	1222.84338	-199.57755	-32.43388	1251.08459	-483.55887	-535.35150	1155.51526	31.38345	-154.75000	923.73676	-347.35861	-452.69113	923.08075	-287.53140	-277.52167	988.16351	-578.44232	-114.56526	498.70413	-332.37894	-458.92844	516.58789	-253.84601	-181.78902	86.19369	-421.11395	-491.16989	103.44607	-308.55804	
700	6.990	-227.29797	1572.97302	-208.49579	-451.59268	1521.38879	-172.81554							-134.36519	1496.55188	-405.18842	-510.22122	1443.91772	-307.21039	-317.36301	1290.49365	-309.61951	-371.63000	1525.02185	-475.24789	-135.13516	1298.36853	-314.05313	-617.11932	1220.63660	-192.85040	-35.08711	1250.64868	-481.34177	-526.29083	1154.46228	36.06542	-157.01094	923.47583	-344.72174	-454.06491	922.50275	-283.27686	-280.64676	988.34790	-575.19916	-115.06860	498.52338	-332.49866	-457.30966	511.75592	-255.48552	-181.88065	86.17450	-421.10748	-493.67239	102.99928	-299.42990	
701	7.000	-226.84372	1572.60547	-205.80247	-450.41052	1520.28662	-167.86534							-136.52272	1496.47925	-403.48795	-511.70590	1442.92834	-302.06329	-317.47406	1290.42676	-305.98373	-374.27454	1525.17444	-471.05835	-136.13440	1298.39612	-311.31598	-614.75464	1219.10730	-185.66275	-38.07235	1250.15735	-480.67014	-516.38708	1152.63208	40.07431	-158.09831	923.63165	-341.91547	-455.03656	922.31134	-278.96793	-284.12762	987.99384	-571.16016	-115.93650	498.18463	-332.59088	-454.02966	506.92484	-255.36900	-181.94191	86.16274	-421.10242	-496.41092	103.54881	-293.30249	
